<?xml version="1.0" encoding="UTF-8" standalone="no"?><!-- Generator: Gravit.io --><svg xmlns="http://www.w3.org/2000/svg" xmlns:xlink="http://www.w3.org/1999/xlink" style="isolation:isolate" viewBox="0 0 195.36 186" width="195.36pt" height="186pt"><defs><clipPath id="_clipPath_rKMSf2qOY3NwtL8otkprWkCCPjlwUZ7O"><rect width="195.36" height="186"/></clipPath></defs><g clip-path="url(#_clipPath_rKMSf2qOY3NwtL8otkprWkCCPjlwUZ7O)"><linearGradient id="_lgradient_4" x1="0" y1="0" x2="1" y2="0" gradientTransform="matrix(352.386,-103.713,-103.713,-352.386,-67.816,163.448)" gradientUnits="userSpaceOnUse"><stop offset="0%" stop-opacity="1" style="stop-color:rgb(246,207,219)"/><stop offset="100%" stop-opacity="1" style="stop-color:rgb(255,255,255)"/></linearGradient><path d=" M 97.68 184 C 71.241 184 47.319 173.803 30.006 157.329 C 12.694 140.853 2.001 118.117 2 93 C 2.001 67.883 12.694 45.147 30.006 28.671 C 47.319 12.196 71.241 2 97.68 2 C 124.119 2 148.041 12.196 165.354 28.671 C 182.666 45.147 193.359 67.883 193.36 93 C 193.359 118.117 182.666 140.853 165.354 157.329 C 148.041 173.803 124.119 184 97.68 184 L 97.68 184 Z " fill="url(#_lgradient_4)"/><linearGradient id="_lgradient_5" x1="0" y1="0" x2="1" y2="0" gradientTransform="matrix(352.386,-103.713,-103.713,-352.386,-67.816,163.448)" gradientUnits="userSpaceOnUse"><stop offset="0%" stop-opacity="1" style="stop-color:rgb(225,78,131)"/><stop offset="100%" stop-opacity="1" style="stop-color:rgb(255,255,255)"/></linearGradient><path d=" M 97.681 186 C 97.679 186 97.682 186 97.68 186 L 97.68 186 C 70.724 186 46.306 175.601 28.628 158.778 C 10.948 141.958 -0.001 118.693 0 93 C -0.001 67.307 10.948 44.042 28.628 27.222 C 46.305 10.399 70.725 0 97.68 0 C 97.681 0 97.678 0 97.68 0 C 124.636 0 149.054 10.398 166.732 27.222 C 184.412 44.042 195.361 67.307 195.36 93 C 195.361 118.693 184.412 141.958 166.732 158.778 C 149.055 175.6 124.635 186 97.681 186 Z  M 97.68 2 C 71.241 2 47.319 12.196 30.006 28.671 C 12.694 45.147 2.001 67.883 2 93 C 2.001 118.117 12.694 140.853 30.006 157.329 C 47.319 173.803 71.241 184 97.68 184 L 97.68 184 C 124.119 184 148.041 173.803 165.354 157.329 C 182.666 140.853 193.359 118.117 193.36 93 C 193.359 67.883 182.666 45.147 165.354 28.671 C 148.041 12.196 124.119 2 97.68 2 Z " fill-rule="evenodd" fill="url(#_lgradient_5)"/><g><circle vector-effect="non-scaling-stroke" cx="55.67996146997142" cy="93.00003525889318" r="14.38914252649484" fill="rgb(70,70,70)"/><circle vector-effect="non-scaling-stroke" cx="97.67996146997142" cy="92.99998948293742" r="14.389142526494837" fill="rgb(70,70,70)"/><circle vector-effect="non-scaling-stroke" cx="139.67996146997143" cy="92.99998948293742" r="14.38914252649483" fill="rgb(70,70,70)"/></g></g></svg>